PathFileType	4	(X/Y/Z)	./resultDataOpenSim/trcMotMarkerGrf/sub09/qtm-04-07.trc
DataRate	CameraRate	NumFrames	NumMarkers	Units	OrigDataRate	OrigDataStartFrame	OrigNumFrames
250.000000	250.000000	5	24	m	250.000000	62	488
Frame#	Time	L.Toe.Tip			R.Toe.Tip			L.Ankle.Lat			R.Ankle.Lat			L.Ankle.Med			R.Ankle.Med			L.Heel			R.Heel			L.Knee.Lat			R.Knee.Lat			L.Knee.Med			R.Knee.Med			L.Thigh.Upper			R.Thigh.Upper			L.ASIS			R.ASIS			V.Sacral			L.Acromium			R.Acromium			C7			L.Elbow			R.Elbow			L.Wrist.Lat			R.Wrist.Lat
		X1	Y1	Z1	X2	Y2	Z2	X3	Y3	Z3	X4	Y4	Z4	X5	Y5	Z5	X6	Y6	Z6	X7	Y7	Z7	X8	Y8	Z8	X9	Y9	Z9	X10	Y10	Z10	X11	Y11	Z11	X12	Y12	Z12	X13	Y13	Z13	X14	Y14	Z14	X15	Y15	Z15	X16	Y16	Z16	X17	Y17	Z17	X18	Y18	Z18	X19	Y19	Z19	X20	Y20	Z20	X21	Y21	Z21	X22	Y22	Z22	X23	Y23	Z23	X24	Y24	Z24

62	0.244	-1.404362	0.083517972	-0.047158241	-0.69014645	0.039600554	0.065311357	-1.4213159	0.23642911	-0.10554465	-0.83450305	0.053231988	0.090901752	-1.3988965	0.22541246	-0.011246857	-0.82718858	0.09144682	0.003143169	-1.4819403	0.28465527	-0.058088616	-0.9055378	0.03109795	0.043759611	-1.0495365	0.41917424	-0.13240446	-0.78202974	0.50349785	0.15600414	-1.0346277	0.40554642	-0.0082075778	-0.79828444	0.49204043	0.029174804	-1.0154718	0.82597514	-0.15050966	-0.98014519	0.85690351	0.22184278	-0.92357948	0.91149144	-0.098617724	-0.91203607	0.94029471	0.14036426	-1.0861907	0.98188312	0.026685862	-0.91788928	1.3825558	-0.14022502	-0.94982139	1.3824388	0.18818838	-1.0015706	1.4347502	0.021250014	-1.0247903	1.0226219	-0.20856368	-1.0910854	1.0471185	0.25696051	-0.80388369	0.86600113	-0.18386556	-0.97597326	0.79922306	0.27290892
63	0.248	-1.3919278	0.086127592	-0.049380513	-0.69010221	0.039594205	0.065169247	-1.4094208	0.23936964	-0.1057204	-0.83473827	0.052974503	0.091093186	-1.3862672	0.22755596	-0.011582652	-0.82697595	0.091370942	0.0030240104	-1.4700205	0.28760424	-0.058647296	-0.90559453	0.031098618	0.043720607	-1.036814	0.41937644	-0.13210507	-0.77858627	0.50302201	0.15581239	-1.023341	0.40571359	-0.007638137	-0.79522579	0.4916156	0.029001017	-1.0092506	0.82628035	-0.15043808	-0.97459325	0.85795529	0.22190869	-0.9179776	0.9122257	-0.098587365	-0.90619906	0.94118225	0.14034723	-1.0807474	0.98281002	0.026660027	-0.91214351	1.3832501	-0.14024508	-0.94344225	1.3831841	0.18820252	-0.99554585	1.4356149	0.021797048	-1.0194935	1.0235368	-0.20738269	-1.0834119	1.0472777	0.25861645	-0.80093496	0.8641708	-0.1837145	-0.9663693	0.80010302	0.27250684
64	0.252	-1.3789495	0.088541388	-0.051562996	-0.69008499	0.039593948	0.065037486	-1.3972842	0.24206197	-0.10585431	-0.83489633	0.052829335	0.091345759	-1.3729915	0.22959914	-0.012103464	-0.82678094	0.091300538	0.0029026867	-1.457799	0.2901635	-0.059399729	-0.90565719	0.031091669	0.043680091	-1.024175	0.41976033	-0.13174681	-0.77521041	0.50256867	0.15561965	-1.0122444	0.40599335	-0.0069877565	-0.79222924	0.49119744	0.028812485	-1.0030901	0.82667855	-0.15041319	-0.96897051	0.85911952	0.22200011	-0.91230066	0.91306083	-0.098552579	-0.90040458	0.94217022	0.14030848	-1.0752821	0.9837892	0.026634998	-0.90658174	1.3840288	-0.1403213	-0.93707261	1.3839997	0.18818949	-0.98957181	1.4365457	0.022275908	-1.0142649	1.0245323	-0.20615614	-1.0760259	1.0474279	0.25975624	-0.79807957	0.86241992	-0.18357257	-0.95673668	0.80112655	0.27208536
65	0.256	-1.3656011	0.090726183	-0.053681987	-0.69009339	0.039598132	0.064923458	-1.3848985	0.24447452	-0.10596946	-0.83497281	0.052834932	0.091545145	-1.3597632	0.23151542	-0.012593656	-0.826597	0.09124151	0.0027825686	-1.4454817	0.29221914	-0.059869645	-0.90572146	0.03108323	0.043640924	-1.0115795	0.42031731	-0.13134523	-0.7719654	0.50214243	0.15544357	-1.0004314	0.40637886	-0.0062866089	-0.78927623	0.49080491	0.028624284	-0.9969647	0.82720179	-0.15037488	-0.96333839	0.86035489	0.22211819	-0.90656362	0.91400641	-0.098494793	-0.89461117	0.94324218	0.14027317	-1.0697711	0.98482365	0.026632905	-0.90120472	1.3848838	-0.14044894	-0.93072464	1.3848821	0.18816176	-0.98367581	1.4375501	0.022628697	-1.0091533	1.0255769	-0.20504646	-1.0688088	1.0475942	0.26062038	-0.79529559	0.86075828	-0.183431	-0.9470588	0.80231158	0.27165109
66	0.26	-1.3520146	0.092646627	-0.055739757	-0.69012026	0.039603441	0.064833373	-1.3722743	0.24658267	-0.10607742	-0.83501739	0.052945105	0.091654473	-1.3469509	0.23323054	-0.012917146	-0.82642303	0.091193133	0.0026735187	-1.4332151	0.29381642	-0.059946398	-0.90578207	0.03107979	0.043604459	-0.99891883	0.42104134	-0.13099491	-0.76888685	0.50172757	0.15528825	-0.98766346	0.40689477	-0.0055917671	-0.78635934	0.49044411	0.028453057	-0.99080652	0.82787475	-0.15025423	-0.9577211	0.86161804	0.2222574	-0.90084487	0.91505813	-0.098405783	-0.88874195	0.94436621	0.14025914	-1.0641993	0.98594192	0.026645919	-0.89592851	1.3858031	-0.14059825	-0.92441633	1.385828	0.18813434	-0.9778452	1.4386172	0.022893923	-1.0040818	1.0266302	-0.20410231	-1.0616637	1.0478262	0.26140324	-0.79258422	0.85918869	-0.18329323	-0.93736297	0.80364319	0.27121487
